# xmcd CD database file
#
# Track frame offsets:
#	182
#	86825
#	128475
#	163900
#	182025
#	201825
#	217695
#	254395
#
# Disc length: 3757 seconds
#
# Revision: 0
# Processed by: cddbd v1.4PL0 Copyright (c) Steve Scherf et al.
# Submitted via: Feurio! 1.66 - http://www.feurio.com
#
DISCID=6a0eab08
DTITLE=Muddy Waters - Live In Switzerland 1976 [CD2)
DYEAR=1976
DGENRE=blues
TTITLE0=Nothing But Soul -Record 2 - I Got a Mind To Travel
TTITLE1=After Hours
TTITLE2=Stormy Monday Blues
TTITLE3=Walking Blues
TTITLE4=Rolling' And Tumblin'
TTITLE5=Got My Mojo Working
TTITLE6=Take A Little Walk With Me
TTITLE7=For You My Love
EXTD=
EXTT0=
EXTT1=
EXTT2=
EXTT3=
EXTT4=
EXTT5=
EXTT6=
EXTT7=
PLAYORDER=
